<svg width="113" height="20" viewBox="0 0 113 20" fill="none" xmlns="http://www.w3.org/2000/svg">
<path d="M0.75 19V0.999999H4.2L12.025 13V0.999999H15.475V19H12.025L4.2 7V19H0.75ZM17.9629 19V0.999999H28.9629V4.4H21.3629V8.3H27.4629V11.7H21.3629V19H17.9629ZM34.3947 19V4.175H28.7197V0.999999H43.4697V4.175H37.7947V19H34.3947ZM51.5016 19L46.2266 0.999999H49.8016L53.1766 13.375L56.5516 1.025L60.1266 0.999999L63.5016 13.375L66.8766 0.999999H70.4516L65.1766 19H61.8266L58.3391 6.85L54.8516 19H51.5016ZM76.0438 19.375C74.6854 19.375 73.4938 19.0708 72.4688 18.4625C71.4438 17.8542 70.6438 17.0167 70.0688 15.95C69.5021 14.875 69.2188 13.6417 69.2188 12.25C69.2188 10.8417 69.5104 9.60417 70.0938 8.5375C70.6771 7.4625 71.4813 6.625 72.5063 6.025C73.5313 5.425 74.7104 5.125 76.0438 5.125C77.4021 5.125 78.5938 5.42917 79.6188 6.0375C80.6521 6.64583 81.4563 7.4875 82.0313 8.5625C82.6063 9.62917 82.8938 10.8583 82.8938 12.25C82.8938 13.65 82.6021 14.8875 82.0188 15.9625C81.4438 17.0292 80.6396 17.8667 79.6063 18.475C78.5813 19.075 77.3938 19.375 76.0438 19.375ZM76.0438 16.2C77.1354 16.2 77.9479 15.8333 78.4813 15.1C79.0229 14.3583 79.2938 13.4083 79.2938 12.25C79.2938 11.05 79.0188 10.0917 78.4688 9.375C77.9271 8.65833 77.1188 8.3 76.0438 8.3C75.3021 8.3 74.6938 8.46667 74.2188 8.8C73.7438 9.13333 73.3896 9.59583 73.1563 10.1875C72.9313 10.7792 72.8188 11.4667 72.8188 12.25C72.8188 13.4583 73.0896 14.4208 73.6313 15.1375C74.1813 15.8458 74.9854 16.2 76.0438 16.2ZM84.6426 19V5.5H87.6426V8.8L87.3176 8.375C87.4926 7.90833 87.7259 7.48333 88.0176 7.1C88.3092 6.71667 88.6676 6.4 89.0926 6.15C89.4176 5.95 89.7717 5.79583 90.1551 5.6875C90.5384 5.57083 90.9342 5.5 91.3426 5.475C91.7509 5.44167 92.1592 5.45 92.5676 5.5V8.675C92.1926 8.55833 91.7551 8.52083 91.2551 8.5625C90.7634 8.59583 90.3176 8.70833 89.9176 8.9C89.5176 9.08333 89.1801 9.32917 88.9051 9.6375C88.6301 9.9375 88.4217 10.2958 88.2801 10.7125C88.1384 11.1208 88.0676 11.5833 88.0676 12.1V19H84.6426ZM94.1953 19V0.625H97.5953V19H94.1953ZM105.818 19.375C104.576 19.375 103.489 19.0625 102.555 18.4375C101.622 17.8125 100.893 16.9625 100.368 15.8875C99.8511 14.8125 99.5928 13.6 99.5928 12.25C99.5928 10.875 99.8553 9.65417 100.38 8.5875C100.914 7.5125 101.659 6.66667 102.618 6.05C103.576 5.43333 104.701 5.125 105.993 5.125C107.276 5.125 108.355 5.4375 109.23 6.0625C110.105 6.6875 110.768 7.5375 111.218 8.6125C111.668 9.6875 111.893 10.9 111.893 12.25C111.893 13.6 111.664 14.8125 111.205 15.8875C110.755 16.9625 110.08 17.8125 109.18 18.4375C108.28 19.0625 107.159 19.375 105.818 19.375ZM106.368 16.35C107.126 16.35 107.73 16.1792 108.18 15.8375C108.639 15.4958 108.968 15.0167 109.168 14.4C109.368 13.7833 109.468 13.0667 109.468 12.25C109.468 11.4333 109.368 10.7167 109.168 10.1C108.968 9.48333 108.647 9.00417 108.205 8.6625C107.772 8.32083 107.201 8.15 106.493 8.15C105.734 8.15 105.109 8.3375 104.618 8.7125C104.134 9.07917 103.776 9.575 103.543 10.2C103.309 10.8167 103.193 11.5 103.193 12.25C103.193 13.0083 103.305 13.7 103.53 14.325C103.755 14.9417 104.101 15.4333 104.568 15.8C105.034 16.1667 105.634 16.35 106.368 16.35ZM109.468 19V9.75H109.043V0.999999H112.468V19H109.468Z" fill="url(#paint0_linear_1_53)"/>
<defs>
<linearGradient id="paint0_linear_1_53" x1="1.11401" y1="-22.0111" x2="123.342" y2="-22.119" gradientUnits="userSpaceOnUse">
<stop stop-color="#AE67FA"/>
<stop offset="0.973958" stop-color="#F49867"/>
</linearGradient>
</defs>
</svg>
